<?xml version="1.0" encoding="utf-8"?>
<!-- Generator: Adobe Illustrator 23.0.1, SVG Export Plug-In . SVG Version: 6.00 Build 0)  -->
<svg version="1.1" id="Layer_1" xmlns="http://www.w3.org/2000/svg" xmlns:xlink="http://www.w3.org/1999/xlink" x="0px" y="0px"
	 viewBox="0 0 174.6 73.4" style="enable-background:new 0 0 174.6 73.4;" xml:space="preserve">
<style type="text/css">
	.st0{fill:#C05B63;}
</style>
<title>US-NC</title>
<path class="st0" d="M70,10.5l-2.2-0.1c-1.9,0.1-3.7-0.1-5.5-0.3c-0.7-0.1-1.5-0.3-2.2-0.5l-0.4-0.1c-1.7-0.3-2.2,1.2-2.4,2.1
	c-0.2,0.8-0.3,1.6-0.4,2.4c-0.2,1.8-1.4,2-1.9,2c-1.1,0-1.6,0.8-2.4,1.9c-1,1.6-2.2,3.5-5.2,2.7c-0.7,0.1-1.4,0.3-2,0.6l-0.1,0.1
	c-0.3,0.1-0.6,0.3-0.9,0.5c-1.1,0.8-2.6,1.2-4,1.1c-0.2,0-0.4-0.1-0.6-0.2c-0.1,0.1-0.3,0.1-0.4,0.3c-0.2,0.2-0.5,0.4-0.8,0.5
	c-1.2,0.7-2.3,1.5-3.3,2.5c-1.7,1.4-3.3,2.9-5.8,3.4c-0.9,0.2-1.7,0.6-2.5,1c-1.4,0.8-3.1,1.2-4.7,1.3c-0.5,0-1.1,0.1-1.6,0.3
	l-1.3,0.3c-0.9,0.1-1.7,0.8-1.7,1.8c0.2,2.1-1.3,4-3.4,4.2l-0.1,0c-1.2,0.2-1.4,0.6-1.8,1.8l0,0.2c0,0.1-0.1,0.2-0.1,0.3l0.2,0
	c5.4,0.1,10.1,0.2,14.6,0.5c6,0.3,12.9,0.3,19.3-2.9c1.3-0.6,2.8-0.9,4.2-0.6c1,0.1,2,0.1,3,0.1l1.6,0l2.3,0.1
	c4.6,0.2,9.4,0.3,14.2,0.6l0.2,0c0.3,0,0.5,0,0.8,0c0.7,0.1,1.2,0.6,1.4,1.2c2.4,0.7,4.5,3.2,4.7,5.5c0,0.2,0,0.5,0.1,0.7l0.2,0
	c0.2,0,0.3,0,0.5,0c3.2-0.1,6.3-0.1,9.4-0.2c2.3-0.1,4.5-0.1,6.8-0.1c0.3,0,0.7,0,1,0.1c0.8,0.1,1.5,0.5,2,1.1
	c2.7,2.5,5.2,5.1,7.9,7.7c3.1,2.9,6.1,5.9,9.1,8.9l0.2,0.2c1,1,1.8,1.8,3.1,1.4l0.3,0l1,0c0.8,0,1.5,0,2.3,0
	c1.9,0.1,4.3-0.4,4.8-3.4c0.7-4.5,3.7-6.8,6.6-9.1c1.1-0.9,2.1-1.7,3.1-2.7l0.3-0.3l0.4,0.1c1,0.2,1.3-0.3,1.9-1.4
	c0.1-0.2,0.2-0.4,0.3-0.5c0.7-1.2,1.8-2.6,4-2.3c0.3,0,0.6,0.1,0.8,0.2l0.1,0c0.2,0.1,0.4,0.2,0.6,0.2l0.2,0
	c0.7-1.1,1.9-1.6,3.2-1.2l0.8,0.1c0.9,0,1.8-0.3,2.4-0.9c0.7-0.5,1.1-1.3,1.3-2.1c-1.7,1.4-3.8,1.5-5.6,1.5c-0.6,0-1.2,0-1.8,0.1
	c-1.1,0.2-2.2-0.1-3.1-0.7c-0.6-0.4-2-1.3-1.2-2.9c0.3-0.8,1.1-1.2,1.8-1c0.4,0.1,0.7,0.2,1,0.4l0.2,0.1c0.6,0.3,1.2,0.5,1.8,0.6
	c0.7,0.1,1.4,0.1,2.2-1.9c0.1-0.3,0.3-0.5,0.5-0.8c0.3-0.4,0.5-0.8,0.5-1.3c0-0.1-0.1-0.3-0.8-0.6c-0.6-0.2-1-0.8-1.1-1.4
	c-0.2-0.6,0-1.3,0.5-1.7c0.4-0.4,0.6-1,0.6-1.6l0.1-0.7c0.1-0.8,0.7-1.4,1.5-1.5l0.2,0c0.4,0.1,1.2,0.4,1.2,1.7c0,0.8,0.2,1,0.9,1.1
	l0.2,0c0.8,0.1,1.6,0.2,2.4,0.4l0.9,0.1c1,0.3,2-0.2,2.4-1.2c0,0,0-0.1,0-0.1c0.4-1.6,1.7-2.8,3.4-3l0,0c-0.2-0.9-0.2-1.9,0.1-2.8
	l0.2-1.5c0.1-0.9,0-0.9-0.3-1.1c-0.4-0.1-0.7,0.1-0.9,0.8c-0.3,1.1-1.5,1.8-2.7,1.5l-0.3-0.1c-0.5-0.1-1-0.4-1.2-0.9
	c-0.3-0.5-0.4-1.2-0.1-1.8l0.1-0.4l-0.7-0.1l-1.3,0.1l-0.5,0c-0.7,0.3-1.5,0.5-2.3,0.7c-1,0.2-1.9,0.5-2.8,1c-0.5,0.3-1,0.4-1.6,0.4
	c-0.6-0.1-1.2-0.4-1.5-1c-0.5-1.1-0.3-2.5,0.7-3.3c0.6-0.6,1.4-0.9,2.3-1l0.2-0.1l0.6-0.1c0.4-0.1,0.8-0.2,1.2-0.3
	c0.8-2,2.4-2.2,3.6-2.3c0.4,0,0.8-0.1,1.1-0.2c0.2-0.1,0.3,0,0.4-0.1c-0.1-0.6,0.1-1.1,0.5-1.5c0.6-0.5,1.5-0.4,2.4,0.5
	c0.4,0.3,1,0.3,1.3-0.1c0,0,0,0,0,0l0,0c-0.2-0.2-0.4-0.4-0.6-0.6l-0.2-0.1l-0.6-0.5c-1.1-0.8-2-1.9-2.6-3.1
	c-0.2-0.5-0.3-0.5-0.4-0.5c-0.2,0-0.4,0-0.6,0c-3.7,0.3-7.4,0.5-11,0.7l-7.4,0.4c-13.3,0.8-26.9,1.6-40.5,1.2
	c-4.1-0.1-8.4-0.1-12.5-0.1C79.7,10.7,74.8,10.7,70,10.5z"/>
</svg>
